<svg xmlns="http://www.w3.org/2000/svg" version="1.0" width="460.000000pt" height="460.000000pt" viewBox="0 0 460.000000 460.000000" preserveAspectRatio="xMidYMid meet">

<g transform="translate(0.000000,460.000000) scale(0.100000,-0.100000)" fill="#673ab7" stroke="none">
<path d="M2000 4564 c-754 -102 -1410 -575 -1746 -1259 -162 -331 -234 -641 -234 -1010 0 -369 72 -679 234 -1010 339 -689 997 -1161 1759 -1260 152 -19 432 -19 584 0 762 99 1420 571 1759 1260 162 331 234 641 234 1010 0 272 -36 493 -122 745 -46 134 -143 340 -217 459 -361 582 -975 977 -1654 1066 -147 19 -452 18 -597 -1z m-734 -1714 c12 -14 40 -46 61 -71 110 -131 129 -153 138 -163 10 -11 102 -119 140 -165 11 -13 32 -39 48 -57 l27 -32 -26 -21 c-15 -12 -30 -21 -34 -21 -4 0 -34 28 -66 62 -68 71 -64 66 -174 188 -47 52 -92 101 -100 110 -175 186 -253 270 -269 291 -15 19 -21 48 -27 124 l-7 99 133 -160 c74 -87 144 -170 156 -184z m1127 133 c9 -3 17 -9 17 -13 0 -5 12 -13 28 -19 15 -6 34 -15 42 -20 54 -35 216 -134 241 -146 39 -21 37 -33 -8 -40 -21 -4 -92 -18 -158 -32 -111 -23 -155 -32 -320 -62 -33 -6 -99 -19 -147 -30 -49 -10 -88 -16 -88 -11 0 6 36 57 50 70 3 3 32 41 65 85 32 44 64 85 69 92 30 35 36 43 36 53 0 5 4 10 8 10 5 0 26 25 47 55 l38 55 31 -21 c17 -11 39 -23 49 -26z m237 -445 l61 -63 -6 -70 c-3 -38 -13 -108 -21 -154 -8 -46 -14 -99 -14 -117 l0 -34 -246 0 -247 0 46 43 c25 23 75 68 111 100 54 48 136 147 121 147 -2 0 -43 -35 -92 -77 -48 -42 -99 -86 -112 -98 -14 -11 -75 -64 -138 -118 -62 -54 -117 -96 -122 -93 -4 3 -20 40 -36 83 -15 43 -33 92 -40 108 -7 17 -22 54 -33 82 l-20 53 32 19 c17 11 55 29 85 41 30 12 78 32 105 45 182 85 291 130 361 145 132 30 135 29 205 -42z m-836 -168 c6 -22 -3 -33 -60 -80 -126 -104 -116 -98 -148 -85 -29 12 -29 12 -9 31 10 10 41 37 68 59 27 22 67 57 89 77 43 39 51 38 60 -2z m38 -130 l26 -59 -39 -36 -40 -36 -27 20 c-15 10 -38 31 -51 45 l-24 25 34 28 c18 15 45 38 59 50 14 12 28 23 31 23 3 0 17 -27 31 -60z m599 -314 l-63 -64 23 -33 c13 -19 27 -36 30 -39 3 -3 36 -45 73 -95 37 -49 86 -115 110 -145 23 -30 46 -61 50 -67 6 -10 -80 -13 -413 -13 l-421 0 0 153 0 152 112 107 113 108 225 0 224 0 -63 -64z m228 -23 c28 -88 42 -103 147 -164 81 -47 189 -113 194 -119 3 -4 48 -32 100 -63 159 -94 168 -86 -96 -87 l-231 0 -59 71 c-33 39 -64 77 -69 83 -81 91 -195 241 -191 251 2 7 21 36 42 64 36 52 37 52 87 49 l50 -3 26 -82z" fill="#673ab7"/>
</g>
</svg>